<svg width="17" height="17" viewBox="0 0 17 17" fill="none" xmlns="http://www.w3.org/2000/svg">
<path opacity="0.7" d="M15.9143 16L11.038 11.1087M0.960205 6.86957C0.960205 7.64037 1.11156 8.40362 1.40563 9.11575C1.6997 9.82788 2.13073 10.4749 2.6741 11.02C3.21748 11.565 3.86255 11.9974 4.5725 12.2923C5.28245 12.5873 6.04338 12.7391 6.81182 12.7391C7.58027 12.7391 8.34119 12.5873 9.05114 12.2923C9.76109 11.9974 10.4062 11.565 10.9495 11.02C11.4929 10.4749 11.9239 9.82788 12.218 9.11575C12.5121 8.40362 12.6634 7.64037 12.6634 6.86957C12.6634 5.31286 12.0469 3.81991 10.9495 2.71916C9.85215 1.6184 8.36377 1 6.81182 1C5.25988 1 3.77149 1.6184 2.6741 2.71916C1.57671 3.81991 0.960205 5.31286 0.960205 6.86957Z" stroke="white" stroke-opacity="0.7" stroke-linecap="round" stroke-linejoin="round"/>
</svg>
