<svg width="38" height="32" viewBox="0 0 38 32" fill="none" xmlns="http://www.w3.org/2000/svg">
<path d="M34.5644 3.37461L34.5642 3.3744C32.781 1.63915 30.3672 0.665003 27.8517 0.662523C25.3381 0.660045 22.9241 1.62793 21.1377 3.35712L19.0084 5.29001L16.8794 3.35742C15.0944 1.62131 12.6774 0.648452 10.1597 0.650002C7.63996 0.651553 5.22232 1.629 3.43909 3.37002C1.65556 5.11134 0.652801 7.4741 0.654396 9.93904C0.655992 12.4035 1.66142 14.7646 3.44657 16.5036C3.44691 16.5039 3.44725 16.5043 3.44758 16.5046L18.0637 30.9641L18.0639 30.9643C18.1882 31.087 18.3357 31.184 18.4977 31.2501L18.6298 30.926L18.4977 31.2501C18.6597 31.3161 18.8333 31.35 19.0084 31.35C19.1835 31.35 19.357 31.3161 19.519 31.2501L19.3869 30.926L19.519 31.2501C19.6811 31.184 19.8286 31.087 19.9529 30.9643L19.953 30.9641L34.5644 16.5109C34.5647 16.5106 34.565 16.5103 34.5653 16.51C35.4488 15.6485 36.1502 14.6254 36.6289 13.4987C37.1078 12.3717 37.3544 11.1633 37.3544 9.94274C37.3544 8.7222 37.1078 7.51383 36.6289 6.38674C36.15 5.25967 35.4483 4.23621 34.5644 3.37461ZM5.33169 14.6572L5.33075 14.6562C4.05496 13.4035 3.342 11.7107 3.34508 9.94911C3.34816 8.1875 4.06704 6.49705 5.34722 5.24855C6.6277 3.99976 8.36538 3.29521 10.1801 3.29191C11.9932 3.28861 13.7322 3.98563 15.0171 5.22776C15.0328 5.24362 15.0495 5.25844 15.0671 5.27212L18.104 8.03004C18.104 8.03005 18.104 8.03006 18.104 8.03008C18.3509 8.25437 18.6742 8.3778 19.0084 8.3778C19.3426 8.3778 19.6659 8.25435 19.9128 8.03004L19.9128 8.03001L22.9497 5.27049C22.9676 5.25654 22.9846 5.24141 23.0006 5.2252C23.6351 4.60351 24.3895 4.10941 25.221 3.77161C26.0536 3.43333 26.9468 3.25855 27.8493 3.25749C28.7518 3.25644 29.6455 3.42913 30.479 3.76546C31.3124 4.10178 32.069 4.595 32.7056 5.21642C33.3421 5.83782 33.8461 6.57515 34.1891 7.3859C34.5321 8.19662 34.7075 9.06508 34.7054 9.94154C34.7033 10.818 34.5238 11.6857 34.1769 12.4948C33.8301 13.304 33.3225 14.0391 32.683 14.6576L32.5763 14.7608V14.7647L19.0084 28.1876L5.33169 14.6572Z" fill="#B9B9B9" stroke="#B9B9B9" stroke-width="0.7"/>
</svg>
