<svg width="19" height="24" viewBox="0 0 19 24" fill="none" xmlns="http://www.w3.org/2000/svg">
<path d="M14.25 7.47418V5.25822C14.25 4.5677 14.1271 3.88394 13.8884 3.24598C13.6497 2.60803 13.2998 2.02837 12.8588 1.5401C12.4177 1.05183 11.894 0.664508 11.3177 0.400258C10.7414 0.136008 10.1238 0 9.5 0C8.87622 0 8.25855 0.136008 7.68225 0.400258C7.10596 0.664508 6.58232 1.05183 6.14124 1.5401C5.70016 2.02837 5.35028 2.60803 5.11157 3.24598C4.87286 3.88394 4.75 4.5677 4.75 5.25822V10.5164C4.75 10.7157 4.82149 10.9067 4.94875 11.0476C5.07601 11.1885 5.2486 11.2676 5.42857 11.2676C5.60854 11.2676 5.78114 11.1885 5.90839 11.0476C6.03565 10.9067 6.10714 10.7157 6.10714 10.5164V8.97653H11.5357V7.47418H6.10714V5.25822C6.10714 4.2621 6.4646 3.30678 7.10089 2.60242C7.73717 1.89805 8.60016 1.50235 9.5 1.50235C10.3998 1.50235 11.2628 1.89805 11.8991 2.60242C12.5354 3.30678 12.8929 4.2621 12.8929 5.25822V10.4789C12.8929 10.6781 12.9643 10.8692 13.0916 11.01C13.2189 11.1509 13.3915 11.23 13.5714 11.23C13.7514 11.23 13.924 11.1509 14.0513 11.01C14.1785 10.8692 14.25 10.6781 14.25 10.4789V8.97653H17.6429V22.4977H1.35714V8.97653H3.39286V7.47418H0V22.5653C0 22.9458 0.13655 23.3107 0.37961 23.5798C0.622671 23.8488 0.952332 24 1.29607 24H17.7039C18.0477 24 18.3773 23.8488 18.6204 23.5798C18.8634 23.3107 19 22.9458 19 22.5653V7.47418H14.25Z" fill="#739CFF"/>
</svg>
