<svg width="25" height="21" viewBox="0 0 25 21" fill="none" xmlns="http://www.w3.org/2000/svg">
<path d="M23.1359 1.83767C21.9435 0.668061 20.3283 0.0104401 18.6437 0.00876592C16.9591 0.00709175 15.3425 0.6615 14.1477 1.82873L12.5028 3.3339L10.8578 1.82873C9.66395 0.65677 8.04532 -0.00104577 6.35801 1.24796e-06C4.6707 0.00104827 3.05291 0.660872 1.86056 1.83432C0.668197 3.00776 -0.00106394 4.59871 1.26961e-06 6.25717C0.00106648 7.91562 0.672371 9.50574 1.86624 10.6777L12.0177 20.8007C12.0811 20.8638 12.1566 20.914 12.2399 20.9482C12.3232 20.9824 12.4125 21 12.5028 21C12.593 21 12.6824 20.9824 12.7657 20.9482C12.8489 20.914 12.9244 20.8638 12.9879 20.8007L23.1359 10.6822C23.7269 10.1015 24.1957 9.41209 24.5155 8.65331C24.8354 7.89453 25 7.08125 25 6.25992C25 5.43859 24.8354 4.62531 24.5155 3.86653C24.1957 3.10774 23.7269 2.41833 23.1359 1.83767ZM22.168 9.73754L12.5028 19.3759L2.83412 9.73419C1.90218 8.81177 1.38017 7.56391 1.38242 6.26395C1.38468 4.96398 1.91102 3.71788 2.84615 2.79859C3.78129 1.8793 5.04899 1.36176 6.37157 1.35934C7.69416 1.35691 8.96381 1.8698 9.90243 2.78565C9.90794 2.79144 9.91403 2.79668 9.9206 2.80128L12.0381 4.73968C12.1643 4.85522 12.3303 4.91946 12.5028 4.91946C12.6752 4.91946 12.8412 4.85522 12.9674 4.73968L15.0849 2.80017C15.0915 2.79556 15.0976 2.79033 15.1031 2.78454C15.5669 2.32594 16.1183 1.96185 16.7256 1.71315C17.3329 1.46444 17.9841 1.33602 18.642 1.33524C19.2999 1.33447 19.9515 1.46135 20.5594 1.70862C21.1673 1.95589 21.7195 2.31868 22.1845 2.77618C22.6494 3.23368 23.0179 3.77689 23.2688 4.37467C23.5197 4.97245 23.648 5.61302 23.6465 6.25966C23.645 6.9063 23.5136 7.54628 23.2599 8.1429C23.0062 8.73952 22.6351 9.28105 22.168 9.73642V9.73754Z" fill="#739CFF"/>
</svg>
