<svg width="23" height="19" viewBox="0 0 23 19" fill="none" xmlns="http://www.w3.org/2000/svg">
<path d="M11.2687 12.5L15.1194 9.5M15.1194 9.5L11.2687 6.5M15.1194 9.5H1M7.41791 4.74859V4.7002C7.41791 3.58009 7.41791 3.01962 7.69771 2.5918C7.94384 2.21547 8.33628 1.90973 8.81932 1.71799C9.36847 1.5 10.0879 1.5 11.5256 1.5H17.4301C18.8678 1.5 19.5857 1.5 20.1349 1.71799C20.6179 1.90973 21.0117 2.21547 21.2578 2.5918C21.5373 3.0192 21.5373 3.57899 21.5373 4.69691V14.3036C21.5373 15.4215 21.5373 15.9805 21.2578 16.4079C21.0117 16.7842 20.6179 17.0905 20.1349 17.2822C19.5863 17.5 18.8688 17.5 17.4338 17.5H11.5214C10.0865 17.5 9.36793 17.5 8.81932 17.2822C8.33628 17.0905 7.94384 16.7839 7.69771 16.4076C7.41791 15.9798 7.41791 15.4201 7.41791 14.3V14.25" stroke="#F50395" stroke-width="1.2" stroke-linecap="round" stroke-linejoin="round"/>
</svg>
